<svg width="208" height="64" viewBox="0 0 208 64" fill="none" xmlns="http://www.w3.org/2000/svg">
<g filter="url(#filter0_d_42382_803)">
<rect x="3" y="1" width="200" height="56" rx="28" fill="#0F9AFE"/>
<path d="M52.8849 26.3622C52.4375 23.1307 49.9517 21.2557 46.7273 21.2557C42.9276 21.2557 40.0653 24.0256 40.0653 28.7273C40.0653 33.4219 42.892 36.1989 46.7273 36.1989C50.1861 36.1989 52.4801 33.9616 52.8849 31.1847L50.2287 31.1705C49.8949 32.875 48.5028 33.8338 46.7628 33.8338C44.4048 33.8338 42.7145 32.0653 42.7145 28.7273C42.7145 25.446 44.3906 23.6207 46.7699 23.6207C48.5384 23.6207 49.9233 24.6222 50.2287 26.3622H52.8849ZM58.3235 36.2202C60.0352 36.2202 61.0579 35.4176 61.5266 34.5014H61.6119V36H64.0835V28.6989C64.0835 25.8153 61.7326 24.9489 59.6516 24.9489C57.3576 24.9489 55.5962 25.9716 55.0281 27.9602L57.4286 28.3011C57.6843 27.5554 58.4087 26.9162 59.6658 26.9162C60.859 26.9162 61.5124 27.527 61.5124 28.5994V28.642C61.5124 29.3807 60.7383 29.4162 58.8136 29.6222C56.6971 29.8494 54.6729 30.4815 54.6729 32.9389C54.6729 35.0838 56.2425 36.2202 58.3235 36.2202ZM58.9911 34.331C57.9187 34.331 57.1516 33.8409 57.1516 32.8963C57.1516 31.9091 58.011 31.4972 59.1616 31.3338C59.8363 31.2415 61.1857 31.071 61.5195 30.8011V32.0866C61.5195 33.3011 60.5394 34.331 58.9911 34.331ZM70.717 36.1918C72.592 36.1918 73.4371 35.0767 73.842 34.2812H73.9982V36H76.5266V21.4545H73.9485V26.8949H73.842C73.4513 26.1065 72.6488 24.9489 70.7241 24.9489C68.2028 24.9489 66.2212 26.9233 66.2212 30.5597C66.2212 34.1534 68.146 36.1918 70.717 36.1918ZM71.4343 34.0824C69.7369 34.0824 68.842 32.5909 68.842 30.5455C68.842 28.5142 69.7227 27.0582 71.4343 27.0582C73.0891 27.0582 73.9982 28.429 73.9982 30.5455C73.9982 32.6619 73.0749 34.0824 71.4343 34.0824ZM82.4055 36.2202C84.1172 36.2202 85.1399 35.4176 85.6087 34.5014H85.6939V36H88.1655V28.6989C88.1655 25.8153 85.8146 24.9489 83.7337 24.9489C81.4396 24.9489 79.6783 25.9716 79.1101 27.9602L81.5107 28.3011C81.7663 27.5554 82.4908 26.9162 83.7479 26.9162C84.9411 26.9162 85.5945 27.527 85.5945 28.5994V28.642C85.5945 29.3807 84.8203 29.4162 82.8956 29.6222C80.7791 29.8494 78.755 30.4815 78.755 32.9389C78.755 35.0838 80.3246 36.2202 82.4055 36.2202ZM83.0732 34.331C82.0007 34.331 81.2337 33.8409 81.2337 32.8963C81.2337 31.9091 82.093 31.4972 83.2436 31.3338C83.9183 31.2415 85.2678 31.071 85.6016 30.8011V32.0866C85.6016 33.3011 84.6214 34.331 83.0732 34.331ZM99.3729 27.9744C99.0178 26.1278 97.5405 24.9489 94.9837 24.9489C92.3558 24.9489 90.5661 26.2415 90.5732 28.2585C90.5661 29.8494 91.5462 30.9006 93.6413 31.3338L95.5021 31.7244C96.5036 31.9446 96.9723 32.3494 96.9723 32.9673C96.9723 33.7131 96.1626 34.2741 94.9411 34.2741C93.7621 34.2741 92.995 33.7628 92.7749 32.7827L90.2678 33.0241C90.5874 35.027 92.2706 36.2131 94.9482 36.2131C97.6754 36.2131 99.6001 34.7997 99.6072 32.733C99.6001 31.1776 98.5987 30.2259 96.5391 29.7784L94.6783 29.3807C93.5703 29.1321 93.13 28.7486 93.1371 28.1165C93.13 27.3778 93.9467 26.8665 95.0192 26.8665C96.2053 26.8665 96.8303 27.5128 97.0291 28.2301L99.3729 27.9744ZM107.175 25.0909H105.023V22.4773H102.452V25.0909H100.903V27.0795H102.452V33.1449C102.438 35.1974 103.929 36.206 105.861 36.1491C106.592 36.1278 107.097 35.9858 107.374 35.8935L106.94 33.8835C106.798 33.919 106.507 33.983 106.188 33.983C105.541 33.983 105.023 33.7557 105.023 32.7188V27.0795H107.175V25.0909ZM109.325 36H111.896V29.5866C111.896 28.2017 112.94 27.2216 114.353 27.2216C114.787 27.2216 115.326 27.2997 115.547 27.3707V25.0057C115.312 24.9631 114.907 24.9347 114.623 24.9347C113.373 24.9347 112.329 25.6449 111.931 26.9091H111.818V25.0909H109.325V36ZM120.179 36.2202C121.891 36.2202 122.913 35.4176 123.382 34.5014H123.467V36H125.939V28.6989C125.939 25.8153 123.588 24.9489 121.507 24.9489C119.213 24.9489 117.452 25.9716 116.884 27.9602L119.284 28.3011C119.54 27.5554 120.264 26.9162 121.521 26.9162C122.714 26.9162 123.368 27.527 123.368 28.5994V28.642C123.368 29.3807 122.594 29.4162 120.669 29.6222C118.553 29.8494 116.528 30.4815 116.528 32.9389C116.528 35.0838 118.098 36.2202 120.179 36.2202ZM120.847 34.331C119.774 34.331 119.007 33.8409 119.007 32.8963C119.007 31.9091 119.866 31.4972 121.017 31.3338C121.692 31.2415 123.041 31.071 123.375 30.8011V32.0866C123.375 33.3011 122.395 34.331 120.847 34.331ZM128.524 36H131.095V29.5866C131.095 28.2017 132.139 27.2216 133.553 27.2216C133.986 27.2216 134.526 27.2997 134.746 27.3707V25.0057C134.511 24.9631 134.107 24.9347 133.822 24.9347C132.572 24.9347 131.528 25.6449 131.131 26.9091H131.017V25.0909H128.524V36ZM142.597 28.8835H136.049V31H142.597V28.8835ZM153.924 27.9744C153.569 26.1278 152.091 24.9489 149.534 24.9489C146.907 24.9489 145.117 26.2415 145.124 28.2585C145.117 29.8494 146.097 30.9006 148.192 31.3338L150.053 31.7244C151.054 31.9446 151.523 32.3494 151.523 32.9673C151.523 33.7131 150.713 34.2741 149.492 34.2741C148.313 34.2741 147.546 33.7628 147.326 32.7827L144.819 33.0241C145.138 35.027 146.821 36.2131 149.499 36.2131C152.226 36.2131 154.151 34.7997 154.158 32.733C154.151 31.1776 153.15 30.2259 151.09 29.7784L149.229 29.3807C148.121 29.1321 147.681 28.7486 147.688 28.1165C147.681 27.3778 148.498 26.8665 149.57 26.8665C150.756 26.8665 151.381 27.5128 151.58 28.2301L153.924 27.9744ZM161.108 36.2131C163.65 36.2131 165.397 34.9702 165.852 33.0739L163.451 32.804C163.103 33.7273 162.251 34.2102 161.143 34.2102C159.481 34.2102 158.38 33.1165 158.359 31.2486H165.958V30.4602C165.958 26.6321 163.657 24.9489 160.973 24.9489C157.848 24.9489 155.809 27.2429 155.809 30.6094C155.809 34.0327 157.819 36.2131 161.108 36.2131ZM158.366 29.5156C158.444 28.1236 159.474 26.9517 161.008 26.9517C162.485 26.9517 163.48 28.0312 163.494 29.5156H158.366Z" fill="white"/>
</g>
<defs>
<filter id="filter0_d_42382_803" x="0" y="0" width="208" height="64" filterUnits="userSpaceOnUse" color-interpolation-filters="sRGB">
<feFlood flood-opacity="0" result="BackgroundImageFix"/>
<feColorMatrix in="SourceAlpha" type="matrix" values="0 0 0 0 0 0 0 0 0 0 0 0 0 0 0 0 0 0 127 0" result="hardAlpha"/>
<feOffset dx="1" dy="3"/>
<feGaussianBlur stdDeviation="2"/>
<feColorMatrix type="matrix" values="0 0 0 0 0.0732639 0 0 0 0 0.491389 0 0 0 0 0.879167 0 0 0 0.5 0"/>
<feBlend mode="normal" in2="BackgroundImageFix" result="effect1_dropShadow_42382_803"/>
<feBlend mode="normal" in="SourceGraphic" in2="effect1_dropShadow_42382_803" result="shape"/>
</filter>
</defs>
</svg>
