<svg width="238" height="51" viewBox="0 0 238 51" fill="none" xmlns="http://www.w3.org/2000/svg">
<g filter="url(#filter0_d_42382_768)">
<rect x="3" y="1" width="230" height="43" rx="21.5" fill="#0F9AFE"/>
<path d="M97.3 27.46C97.38 27.6333 97.42 27.8067 97.42 27.98C97.42 28.2867 97.2933 28.5467 97.04 28.76C96.8 28.9733 96.52 29.08 96.2 29.08C95.9867 29.08 95.7867 29.0267 95.6 28.92C95.4133 28.8 95.2667 28.62 95.16 28.38L93.96 25.7H86.92L85.72 28.38C85.6133 28.62 85.4667 28.8 85.28 28.92C85.0933 29.0267 84.8867 29.08 84.66 29.08C84.3533 29.08 84.0733 28.9733 83.82 28.76C83.5667 28.5467 83.44 28.2867 83.44 27.98C83.44 27.8067 83.48 27.6333 83.56 27.46L89.08 15.6C89.2 15.3333 89.38 15.1333 89.62 15C89.8733 14.8533 90.14 14.78 90.42 14.78C90.7 14.78 90.96 14.8533 91.2 15C91.4533 15.1333 91.64 15.3333 91.76 15.6L97.3 27.46ZM87.8 23.7H93.08L90.44 17.76L87.8 23.7ZM102.528 29.16C101.074 29.16 99.9008 28.8733 99.0075 28.3C98.5808 28.0467 98.3675 27.6867 98.3675 27.22C98.3675 26.9533 98.4408 26.74 98.5875 26.58C98.7342 26.4067 98.9142 26.32 99.1275 26.32C99.3542 26.32 99.6675 26.4267 100.068 26.64C100.494 26.84 100.881 26.9933 101.228 27.1C101.588 27.2067 102.041 27.26 102.588 27.26C103.148 27.26 103.581 27.1667 103.888 26.98C104.208 26.7933 104.368 26.5333 104.368 26.2C104.368 25.9733 104.301 25.7933 104.168 25.66C104.048 25.5267 103.821 25.4067 103.488 25.3C103.168 25.18 102.674 25.0467 102.008 24.9C100.821 24.66 99.9675 24.32 99.4475 23.88C98.9408 23.44 98.6875 22.8333 98.6875 22.06C98.6875 21.4733 98.8608 20.9467 99.2075 20.48C99.5542 20 100.028 19.6333 100.627 19.38C101.241 19.1133 101.934 18.98 102.708 18.98C103.268 18.98 103.808 19.0533 104.328 19.2C104.848 19.3333 105.314 19.5333 105.728 19.8C106.154 20.0667 106.368 20.42 106.368 20.86C106.368 21.1267 106.294 21.3533 106.148 21.54C106.001 21.7133 105.821 21.8 105.608 21.8C105.461 21.8 105.314 21.7733 105.168 21.72C105.034 21.6533 104.861 21.56 104.648 21.44C104.261 21.24 103.928 21.0933 103.648 21C103.368 20.8933 103.021 20.84 102.608 20.84C102.114 20.84 101.721 20.94 101.428 21.14C101.148 21.34 101.008 21.6133 101.008 21.96C101.008 22.2933 101.154 22.5467 101.448 22.72C101.741 22.8933 102.308 23.0667 103.148 23.24C104.041 23.4267 104.741 23.64 105.248 23.88C105.754 24.12 106.114 24.42 106.328 24.78C106.554 25.14 106.668 25.6 106.668 26.16C106.668 27.0667 106.288 27.7933 105.528 28.34C104.781 28.8867 103.781 29.16 102.528 29.16ZM112.235 29.16C110.781 29.16 109.608 28.8733 108.715 28.3C108.288 28.0467 108.075 27.6867 108.075 27.22C108.075 26.9533 108.148 26.74 108.295 26.58C108.441 26.4067 108.621 26.32 108.835 26.32C109.061 26.32 109.375 26.4267 109.775 26.64C110.201 26.84 110.588 26.9933 110.935 27.1C111.295 27.2067 111.748 27.26 112.295 27.26C112.855 27.26 113.288 27.1667 113.595 26.98C113.915 26.7933 114.075 26.5333 114.075 26.2C114.075 25.9733 114.008 25.7933 113.875 25.66C113.755 25.5267 113.528 25.4067 113.195 25.3C112.875 25.18 112.381 25.0467 111.715 24.9C110.528 24.66 109.675 24.32 109.155 23.88C108.648 23.44 108.395 22.8333 108.395 22.06C108.395 21.4733 108.568 20.9467 108.915 20.48C109.261 20 109.735 19.6333 110.335 19.38C110.948 19.1133 111.641 18.98 112.415 18.98C112.975 18.98 113.515 19.0533 114.035 19.2C114.555 19.3333 115.021 19.5333 115.435 19.8C115.861 20.0667 116.075 20.42 116.075 20.86C116.075 21.1267 116.001 21.3533 115.855 21.54C115.708 21.7133 115.528 21.8 115.315 21.8C115.168 21.8 115.021 21.7733 114.875 21.72C114.741 21.6533 114.568 21.56 114.355 21.44C113.968 21.24 113.635 21.0933 113.355 21C113.075 20.8933 112.728 20.84 112.315 20.84C111.821 20.84 111.428 20.94 111.135 21.14C110.855 21.34 110.715 21.6133 110.715 21.96C110.715 22.2933 110.861 22.5467 111.155 22.72C111.448 22.8933 112.015 23.0667 112.855 23.24C113.748 23.4267 114.448 23.64 114.955 23.88C115.461 24.12 115.821 24.42 116.035 24.78C116.261 25.14 116.375 25.6 116.375 26.16C116.375 27.0667 115.995 27.7933 115.235 28.34C114.488 28.8867 113.488 29.16 112.235 29.16ZM119.642 29.12C119.282 29.12 118.982 29.02 118.742 28.82C118.515 28.6067 118.402 28.3067 118.402 27.92V20.2C118.402 19.8133 118.515 19.52 118.742 19.32C118.982 19.12 119.282 19.02 119.642 19.02C120.002 19.02 120.302 19.12 120.542 19.32C120.782 19.52 120.902 19.8133 120.902 20.2V27.92C120.902 28.3067 120.782 28.6067 120.542 28.82C120.302 29.02 120.002 29.12 119.642 29.12ZM119.642 17.24C119.188 17.24 118.828 17.12 118.562 16.88C118.295 16.6267 118.162 16.3 118.162 15.9C118.162 15.5 118.295 15.18 118.562 14.94C118.828 14.7 119.188 14.58 119.642 14.58C120.082 14.58 120.435 14.7 120.702 14.94C120.982 15.18 121.122 15.5 121.122 15.9C121.122 16.3 120.988 16.6267 120.722 16.88C120.455 17.12 120.095 17.24 119.642 17.24ZM129.16 18.98C130.333 18.98 131.206 19.3133 131.78 19.98C132.353 20.6467 132.64 21.6533 132.64 23V27.92C132.64 28.2933 132.526 28.5867 132.3 28.8C132.086 29.0133 131.786 29.12 131.4 29.12C131.013 29.12 130.706 29.0133 130.48 28.8C130.253 28.5867 130.14 28.2933 130.14 27.92V23.14C130.14 22.38 129.993 21.8267 129.7 21.48C129.42 21.1333 128.973 20.96 128.36 20.96C127.64 20.96 127.06 21.1867 126.62 21.64C126.193 22.0933 125.98 22.7 125.98 23.46V27.92C125.98 28.2933 125.866 28.5867 125.64 28.8C125.413 29.0133 125.106 29.12 124.72 29.12C124.333 29.12 124.026 29.0133 123.8 28.8C123.586 28.5867 123.48 28.2933 123.48 27.92V20.18C123.48 19.8333 123.593 19.5533 123.82 19.34C124.046 19.1267 124.353 19.02 124.74 19.02C125.086 19.02 125.366 19.1267 125.58 19.34C125.806 19.54 125.92 19.8067 125.92 20.14V20.68C126.253 20.1333 126.7 19.7133 127.26 19.42C127.82 19.1267 128.453 18.98 129.16 18.98ZM139.419 18.98C140.779 18.98 141.786 19.32 142.439 20C143.106 20.6667 143.439 21.6867 143.439 23.06V27.94C143.439 28.3 143.332 28.5867 143.119 28.8C142.906 29 142.612 29.1 142.239 29.1C141.892 29.1 141.606 28.9933 141.379 28.78C141.166 28.5667 141.059 28.2867 141.059 27.94V27.5C140.832 28.02 140.472 28.4267 139.979 28.72C139.499 29.0133 138.939 29.16 138.299 29.16C137.646 29.16 137.052 29.0267 136.519 28.76C135.986 28.4933 135.566 28.1267 135.259 27.66C134.952 27.1933 134.799 26.6733 134.799 26.1C134.799 25.38 134.979 24.8133 135.339 24.4C135.712 23.9867 136.312 23.6867 137.139 23.5C137.966 23.3133 139.106 23.22 140.559 23.22H141.059V22.76C141.059 22.1067 140.919 21.6333 140.639 21.34C140.359 21.0333 139.906 20.88 139.279 20.88C138.892 20.88 138.499 20.94 138.099 21.06C137.699 21.1667 137.226 21.3267 136.679 21.54C136.332 21.7133 136.079 21.8 135.919 21.8C135.679 21.8 135.479 21.7133 135.319 21.54C135.172 21.3667 135.099 21.14 135.099 20.86C135.099 20.6333 135.152 20.44 135.259 20.28C135.379 20.1067 135.572 19.9467 135.839 19.8C136.306 19.5467 136.859 19.3467 137.499 19.2C138.152 19.0533 138.792 18.98 139.419 18.98ZM138.799 27.36C139.466 27.36 140.006 27.14 140.419 26.7C140.846 26.2467 141.059 25.6667 141.059 24.96V24.54H140.699C139.806 24.54 139.112 24.58 138.619 24.66C138.126 24.74 137.772 24.88 137.559 25.08C137.346 25.28 137.239 25.5533 137.239 25.9C137.239 26.3267 137.386 26.68 137.679 26.96C137.986 27.2267 138.359 27.36 138.799 27.36ZM151.44 19.02C151.786 18.9933 152.06 19.0667 152.26 19.24C152.46 19.4133 152.56 19.6733 152.56 20.02C152.56 20.38 152.473 20.6467 152.3 20.82C152.126 20.9933 151.813 21.1067 151.36 21.16L150.76 21.22C149.973 21.3 149.393 21.5667 149.02 22.02C148.66 22.4733 148.48 23.04 148.48 23.72V27.92C148.48 28.3067 148.36 28.6067 148.12 28.82C147.88 29.02 147.58 29.12 147.22 29.12C146.86 29.12 146.56 29.02 146.32 28.82C146.093 28.6067 145.98 28.3067 145.98 27.92V20.18C145.98 19.8067 146.093 19.52 146.32 19.32C146.56 19.12 146.853 19.02 147.2 19.02C147.546 19.02 147.826 19.12 148.04 19.32C148.253 19.5067 148.36 19.78 148.36 20.14V20.94C148.613 20.3533 148.986 19.9 149.48 19.58C149.986 19.26 150.546 19.08 151.16 19.04L151.44 19.02Z" fill="white"/>
</g>
<defs>
<filter id="filter0_d_42382_768" x="0" y="0" width="238" height="51" filterUnits="userSpaceOnUse" color-interpolation-filters="sRGB">
<feFlood flood-opacity="0" result="BackgroundImageFix"/>
<feColorMatrix in="SourceAlpha" type="matrix" values="0 0 0 0 0 0 0 0 0 0 0 0 0 0 0 0 0 0 127 0" result="hardAlpha"/>
<feOffset dx="1" dy="3"/>
<feGaussianBlur stdDeviation="2"/>
<feColorMatrix type="matrix" values="0 0 0 0 0.0732639 0 0 0 0 0.491389 0 0 0 0 0.879167 0 0 0 0.5 0"/>
<feBlend mode="normal" in2="BackgroundImageFix" result="effect1_dropShadow_42382_768"/>
<feBlend mode="normal" in="SourceGraphic" in2="effect1_dropShadow_42382_768" result="shape"/>
</filter>
</defs>
</svg>
